<?xml version="1.0" standalone="no"?><!DOCTYPE svg PUBLIC "-//W3C//DTD SVG 1.1//EN" "http://www.w3.org/Graphics/SVG/1.1/DTD/svg11.dtd"><svg t="1723193400207" class="icon" viewBox="0 0 1024 1024" version="1.1" xmlns="http://www.w3.org/2000/svg" p-id="4337" xmlns:xlink="http://www.w3.org/1999/xlink" width="16" height="16"><path d="M737.052444 825.969778h-591.644444c-34.133333 0-56.888889-22.755556-56.888889-56.888889v-654.222222c0-34.133333 22.755556-56.888889 56.888889-56.888889h591.644444c34.133333 0 56.888889 22.755556 56.888889 56.888889v654.222222c0 28.444444-22.755556 56.888889-56.888889 56.888889z m-580.266666-68.266667h568.888889v-631.466667h-568.888889v631.466667z" fill="#1296db" p-id="4338"></path><path d="M614.4 517.688889H307.2c-17.066667 0-34.133333-17.066667-34.133333-34.133333s17.066667-34.133333 34.133333-34.133334h307.2c17.066667 0 34.133333 17.066667 34.133333 34.133334s-17.066667 34.133333-34.133333 34.133333zM614.4 671.288889H307.2c-17.066667 0-34.133333-17.066667-34.133333-34.133333s17.066667-34.133333 34.133333-34.133334h307.2c17.066667 0 34.133333 17.066667 34.133333 34.133334s-17.066667 34.133333-34.133333 34.133333zM347.022222 352.711111c-5.688889 0-11.377778 0-17.066666-5.688889-11.377778-5.688889-17.066667-17.066667-17.066667-28.444444V113.777778c0-17.066667 17.066667-34.133333 34.133333-34.133334s34.133333 17.066667 34.133334 34.133334v136.533333l51.2-39.822222c11.377778-11.377778 28.444444-11.377778 45.511111 0l51.2 39.822222V113.777778c0-17.066667 17.066667-34.133333 34.133333-34.133334s34.133333 17.066667 34.133333 34.133334v204.8c0 11.377778-5.688889 22.755556-17.066666 28.444444-17.066667 5.688889-34.133333 5.688889-45.511111 0L449.422222 278.755556 364.088889 347.022222c-5.688889 0-11.377778 5.688889-17.066667 5.688889z" fill="#1296db" p-id="4339"></path><path d="M853.333333 972.8H307.2c-51.2 0-91.022222-39.822222-91.022222-91.022222v-108.088889H284.444444v108.088889c0 11.377778 11.377778 22.755556 22.755556 22.755555H853.333333c11.377778 0 22.755556-11.377778 22.755556-22.755555V227.555556c0-11.377778-11.377778-22.755556-22.755556-22.755556h-102.4V136.533333H853.333333c51.2 0 91.022222 39.822222 91.022223 91.022223v659.911111c0 45.511111-39.822222 85.333333-91.022223 85.333333z" fill="#1296db" p-id="4340"></path></svg>