<?xml version="1.0" standalone="no"?><!DOCTYPE svg PUBLIC "-//W3C//DTD SVG 1.1//EN" "http://www.w3.org/Graphics/SVG/1.1/DTD/svg11.dtd"><svg t="1722673626665" class="icon" viewBox="0 0 1024 1024" version="1.1" xmlns="http://www.w3.org/2000/svg" p-id="5254" xmlns:xlink="http://www.w3.org/1999/xlink" width="16" height="16"><path d="M352.372304 837.885742l-0.441249-559.155603a46.447282 46.447282 0 0 1 92.894564 0l0.441249 559.155603a46.447282 46.447282 0 0 1-92.894564 0z m232.236409 0l-0.441249-559.155603a46.447282 46.447282 0 0 1 92.894564 0l0.441249 559.155603a46.447282 46.447282 0 0 1-92.894564 0zM954.143288 187.228993l-414.170412 0.185789c-0.650262 0-1.254077 0.185789-1.904339 0.18579s-1.254077-0.162565-1.904339-0.18579h-42.777946c-0.580591 0-1.114735 0.162565-1.672102 0.162566s-1.114735-0.139342-1.672103-0.162566l-277.15093 0.139342 0.371578 743.15651h0.627038l-0.580591-94.334429c0 78.960379 18.3699 92.894564 92.894564 92.894564l-60.985281 1.509536 527.176649-0.325131-48.165831-1.184405c73.293811 0 92.151407-13.934185 92.894563-89.341347l-0.348354-560.943823a46.447282 46.447282 0 0 1 92.894564 0l0.348354 651.81793a92.894564 92.894564 0 0 1-92.894564 92.476538h-46.447281l-510.920101 0.301907v-0.301907h-46.447282a92.894564 92.894564 0 0 1-92.894564-92.894564v-49.350237L120.066224 187.647019H69.996054a46.447282 46.447282 0 0 1 0-92.894564h85.230762a46.238269 46.238269 0 0 1 11.263466-1.53276 45.704125 45.704125 0 0 1 11.217018 1.53276l267.420226-0.139342-0.232236-48.09616a46.447282 46.447282 0 0 1 46.447281-46.447282 45.146758 45.146758 0 0 0 46.447282 0 46.447282 46.447282 0 0 1 46.447282 46.447282l0.232237 48.026489 369.673916-0.209012a46.447282 46.447282 0 0 1 0 92.894563z m-137.019482 743.15651v-76.243213l-0.580591 76.243213h0.580591z" fill="#0090FF" p-id="5255"></path></svg>