<?xml version="1.0" standalone="no"?><!DOCTYPE svg PUBLIC "-//W3C//DTD SVG 1.1//EN" "http://www.w3.org/Graphics/SVG/1.1/DTD/svg11.dtd"><svg t="1722678373606" class="icon" viewBox="0 0 1024 1024" version="1.1" xmlns="http://www.w3.org/2000/svg" p-id="4345" xmlns:xlink="http://www.w3.org/1999/xlink" width="16" height="16"><path d="M384.455111 898.844444H113.777778V102.4h757.76v164.636444H819.2V154.737778H166.115556v691.768889h218.339555V898.844444z" fill="#1296db" p-id="4346"></path><path d="M265.102222 545.336889h159.288889v52.337778h-159.288889zM265.102222 687.217778h159.288889V739.555556h-159.288889zM265.102222 403.569778h159.288889v52.337778h-159.288889zM265.102222 261.688889h250.311111v52.337778h-250.311111zM707.697778 704.512A201.841778 201.841778 0 1 1 910.222222 502.670222a202.410667 202.410667 0 0 1-202.524444 201.841778z m0-351.800889a149.504 149.504 0 1 0 150.186666 149.959111A149.959111 149.959111 0 0 0 707.697778 352.711111z" fill="#1296db" p-id="4347"></path><path d="M836.266667 921.6l-128.568889-79.303111L579.128889 921.6V658.545778h52.337778v169.301333l76.231111-46.990222 76.231111 46.990222V658.545778h52.337778V921.6zM707.697778 427.918222l24.576 49.834667 55.068444 8.078222-39.822222 38.798222 9.443556 54.840889-49.265778-25.941333-49.265778 25.941333 9.443556-54.840889-39.822223-38.798222 55.068445-8.078222 24.576-49.834667z" fill="#1296db" p-id="4348"></path></svg>