<?xml version="1.0" standalone="no"?><!DOCTYPE svg PUBLIC "-//W3C//DTD SVG 1.1//EN" "http://www.w3.org/Graphics/SVG/1.1/DTD/svg11.dtd"><svg t="1723118497027" class="icon" viewBox="0 0 1024 1024" version="1.1" xmlns="http://www.w3.org/2000/svg" p-id="4282" xmlns:xlink="http://www.w3.org/1999/xlink" width="16" height="16"><path d="M827.5968 687.616A528.5376 528.5376 0 0 1 512 793.6c-123.0848 0-235.008-44.7488-315.5968-105.984C112.2816 623.7696 76.8 554.1376 76.8 512c0-42.0864 35.4816-111.7184 119.6032-175.616A528.5376 528.5376 0 0 1 512 230.4c123.136 0 235.008 44.7488 315.5968 105.984C911.6672 400.2304 947.2 469.8624 947.2 512c0 42.0864-35.5328 111.7184-119.6032 175.616zM512 870.4c282.7776 0 512-204.8 512-358.4s-229.2224-358.4-512-358.4S0 358.4 0 512s229.2224 358.4 512 358.4z" fill="#1296db" p-id="4283"></path><path d="M512 588.8a76.8 76.8 0 1 1 0-153.6 76.8 76.8 0 0 1 0 153.6z m0 76.8a153.6 153.6 0 1 0 0-307.2 153.6 153.6 0 0 0 0 307.2z" fill="#1296db" p-id="4284"></path></svg>