<?xml version="1.0" standalone="no"?><!DOCTYPE svg PUBLIC "-//W3C//DTD SVG 1.1//EN" "http://www.w3.org/Graphics/SVG/1.1/DTD/svg11.dtd"><svg t="1722931617534" class="icon" viewBox="0 0 1024 1024" version="1.1" xmlns="http://www.w3.org/2000/svg" p-id="8711" xmlns:xlink="http://www.w3.org/1999/xlink" width="16" height="16"><path d="M859.6 77.7H164.4c-13.8 0-25 11.2-25 25v818.7c0 13.8 11.2 25 25 25h695.3c13.8 0 25-11.2 25-25V102.7c-0.1-13.8-11.3-25-25.1-25z m-25 818.6H189.4V127.7h645.3v768.6z" fill="#1296db" p-id="8712"></path><path d="M285.3 446.1h190c13.8 0 25-11.2 25-25v-190c0-13.8-11.2-25-25-25h-190c-13.8 0-25 11.2-25 25v190c0 13.8 11.2 25 25 25z m25-190h140v140h-140v-140zM609.6 287.6h129c13.8 0 25-11.2 25-25s-11.2-25-25-25h-129c-13.8 0-25 11.2-25 25s11.2 25 25 25zM603.1 420.4h129c13.8 0 25-11.2 25-25s-11.2-25-25-25h-129c-13.8 0-25 11.2-25 25s11.2 25 25 25zM277.1 588.1h476.5c13.8 0 25-11.2 25-25s-11.2-25-25-25H277.1c-13.8 0-25 11.2-25 25s11.2 25 25 25zM277.1 745.3h476.5c13.8 0 25-11.2 25-25s-11.2-25-25-25H277.1c-13.8 0-25 11.2-25 25s11.2 25 25 25z" fill="#1296db" p-id="8713"></path></svg>